<svg xmlns="http://www.w3.org/2000/svg" fill="#0b0b0b" height="24" width="78" viewBox="0 0 77.818 24"><path fill-rule="evenodd" clip-rule="evenodd" d="M24 12c0 6.627-5.373 12-12 12S0 18.627 0 12 5.373 0 12 0s12 5.373 12 12ZM9.134 6.306v-.872l5.732-1.767v.872L9.134 6.306Zm8.861 11.288c.157-.19.235-.426.235-.705 0-.273-.078-.507-.235-.697-.157-.19-.392-.334-.705-.432l-4.901-1.506v.898l4.678 1.403c.103.029.18.07.23.125a.294.294 0 0 1 .077.21.278.278 0 0 1-.076.204.577.577 0 0 1-.23.128l-4.68 1.42v.89l4.902-1.506c.313-.098.548-.242.705-.432ZM8.72 13.595a2.917 2.917 0 0 1-2.723-1.801 3.032 3.032 0 0 1-.227-1.176c0-.423.075-.804.227-1.159.15-.357.36-.669.629-.936a2.917 2.917 0 0 1 2.094-.856 2.896 2.896 0 0 1 2.088.856 2.908 2.908 0 0 1 .846 2.095c0 .416-.073.814-.222 1.176a2.881 2.881 0 0 1-1.557 1.574c-.353.15-.739.227-1.155.227Zm0-.829c.28 0 .544-.056.792-.166.248-.112.466-.264.654-.458.19-.193.333-.42.437-.68.103-.259.154-.54.154-.843 0-.302-.051-.573-.154-.83a2.045 2.045 0 0 0-.437-.675 2.05 2.05 0 0 0-.65-.453 1.937 1.937 0 0 0-.794-.163c-.285 0-.554.054-.804.163-.25.109-.468.259-.654.453a2.152 2.152 0 0 0-.595 1.505c0 .298.053.583.158.843.106.26.251.487.437.68.186.194.403.348.654.458.251.11.518.166.803.166Zm5.42.602c.354.152.742.227 1.158.227a2.907 2.907 0 0 0 2.088-.856c.267-.269.475-.584.624-.945.148-.362.222-.76.222-1.176a2.908 2.908 0 0 0-2.934-2.95 2.917 2.917 0 0 0-2.724 1.791 2.895 2.895 0 0 0-.227 1.159c0 .422.077.814.227 1.176.15.363.36.678.63.945.266.269.58.477.935.629Zm1.95-.768c-.248.11-.512.166-.792.166-.284 0-.551-.056-.802-.166a2.03 2.03 0 0 1-.654-.458 2.138 2.138 0 0 1-.437-.68 2.24 2.24 0 0 1-.159-.843 2.156 2.156 0 0 1 .596-1.505 1.992 1.992 0 0 1 1.458-.616c.284 0 .55.054.794.163.245.107.461.259.65.453.189.193.334.419.437.675.102.257.153.528.153.83 0 .303-.05.584-.153.843-.104.26-.248.487-.437.68a2.128 2.128 0 0 1-.654.458Z M35.68 18.876c-.636 0-1.17-.178-1.603-.534-.433-.357-.76-.891-.982-1.604L29.673 5.6h2.022l3.225 10.633c.076.232.175.407.291.523a.631.631 0 0 0 .465.175.67.67 0 0 0 .477-.175c.123-.116.218-.29.284-.523L39.626 5.6h2.04l-3.422 11.138c-.222.713-.55 1.247-.982 1.604-.433.356-.964.534-1.586.534h.004ZM50.342 18.76a6.63 6.63 0 0 1-4.76-1.946 6.503 6.503 0 0 1-1.429-2.149 6.892 6.892 0 0 1-.516-2.672c0-.96.17-1.826.516-2.633a6.56 6.56 0 0 1 1.43-2.127 6.63 6.63 0 0 1 4.76-1.945c.945 0 1.821.17 2.625.515a6.609 6.609 0 0 1 3.538 3.556c.338.812.505 1.688.505 2.634 0 .945-.167 1.85-.505 2.672a6.549 6.549 0 0 1-3.538 3.579 6.644 6.644 0 0 1-2.626.516Zm0-1.887c.636 0 1.236-.128 1.8-.379a4.835 4.835 0 0 0 1.487-1.04c.43-.44.757-.956.993-1.545.233-.59.35-1.23.35-1.916 0-.688-.117-1.302-.35-1.888a4.65 4.65 0 0 0-.993-1.534 4.66 4.66 0 0 0-1.476-1.03 4.403 4.403 0 0 0-1.807-.37c-.647 0-1.258.123-1.826.37a4.526 4.526 0 0 0-1.487 1.03 4.89 4.89 0 0 0-1.353 3.422c0 .676.12 1.323.36 1.916.24.589.571 1.105.993 1.545.422.44.916.79 1.487 1.04.571.251 1.178.379 1.826.379h-.004ZM65.291 18.76a6.63 6.63 0 0 1-4.76-1.946 6.503 6.503 0 0 1-1.429-2.149 6.892 6.892 0 0 1-.516-2.672c0-.96.17-1.826.516-2.633a6.56 6.56 0 0 1 1.43-2.127 6.628 6.628 0 0 1 4.76-1.945c.945 0 1.821.17 2.625.515a6.609 6.609 0 0 1 3.538 3.556c.338.812.505 1.688.505 2.634 0 .945-.167 1.85-.505 2.672a6.549 6.549 0 0 1-3.538 3.579 6.644 6.644 0 0 1-2.626.516Zm0-1.887c.637 0 1.237-.128 1.8-.379a4.837 4.837 0 0 0 1.488-1.04c.429-.44.756-.956.992-1.545.233-.59.35-1.23.35-1.916 0-.688-.117-1.302-.35-1.888a4.647 4.647 0 0 0-.992-1.534 4.66 4.66 0 0 0-1.477-1.03 4.403 4.403 0 0 0-1.807-.37c-.647 0-1.258.123-1.825.37-.571.248-1.066.59-1.488 1.03a4.89 4.89 0 0 0-1.352 3.422c0 .676.12 1.323.36 1.916.24.589.57 1.105.992 1.545.422.44.917.79 1.488 1.04.57.251 1.178.379 1.825.379h-.004ZM77.81 18.75h-1.98V5.723h1.98v13.025Z"/></svg>